<svg width="223" height="61" viewBox="0 0 223 61" fill="none" xmlns="http://www.w3.org/2000/svg">
<path d="M4.86414 4.19482C13.9555 4.19482 28.2981 21.3628 31.6939 27.9139C39.3085 42.6035 49.1441 56.2231 59.4789 56.2231C71.3809 56.2231 85.0776 29.0684 89.7915 21.7927C94.5053 14.517 104.895 4.19482 112.391 4.19482C125.204 4.19482 134.206 21.4925 140.698 31.0283C148.934 43.1271 156.993 56.963 165.733 56.963C177.287 56.963 188.227 37.9682 192.619 31.0283C198.079 22.4005 206.877 4.19502 218.214 4.19505" stroke="#FFC283" stroke-width="8" stroke-linecap="round"/>
<path d="M38.2054 4.19482C47.3778 4.19482 61.848 21.3628 65.2741 27.9139C72.9565 42.6035 82.8797 56.2231 93.3066 56.2231C105.314 56.2231 119.133 29.0684 123.889 21.7927C128.645 14.517 139.127 4.19482 146.689 4.19482C159.617 4.19482 168.699 21.4925 175.248 31.0283C183.559 43.1271 191.689 56.963 200.506 56.963" stroke="#FFC283" stroke-width="8" stroke-linecap="round"/>
</svg>
