<svg width="301" height="301" viewBox="0 0 301 301" fill="none" xmlns="http://www.w3.org/2000/svg">
<path d="M296.461 150.329C296.461 230.963 231.095 296.329 150.461 296.329C69.8276 296.329 4.46118 230.963 4.46118 150.329C4.46118 69.6959 69.8276 4.32947 150.461 4.32947C231.095 4.32947 296.461 69.6959 296.461 150.329Z" fill="#FFC283" stroke="white" stroke-width="8"/>
<path d="M43.7861 123.945C52.8775 123.945 67.2201 141.113 70.6159 147.664C78.2305 162.354 88.0661 175.974 98.4009 175.974C110.303 175.974 124 148.819 128.713 141.543C133.427 134.267 143.817 123.945 151.313 123.945C164.126 123.945 173.128 141.243 179.62 150.779C187.856 162.878 195.915 176.713 204.655 176.713C216.209 176.713 227.149 157.719 231.541 150.779C237.001 142.151 245.799 123.946 257.136 123.946" stroke="white" stroke-width="8" stroke-linecap="round"/>
<path d="M77.1274 123.945C86.2997 123.945 100.77 141.113 104.196 147.664C111.878 162.354 121.802 175.974 132.229 175.974C144.236 175.974 158.055 148.819 162.811 141.543C167.567 134.267 178.049 123.945 185.611 123.945C198.539 123.945 207.621 141.243 214.17 150.779C222.481 162.878 230.611 176.713 239.428 176.713" stroke="white" stroke-width="8" stroke-linecap="round"/>
</svg>
